# xmcd CD database file
#
# Track frame offsets:
#	150
#	10845
#	26490
#	53025
#	66305
#	80260
#	91042
#	105207
#	115330
#	133825
#	148040
#	161885
#	182347
#	200287
#	215250
#	228715
#
# Disc length: 3211 seconds
#
# Revision: 0
# Processed by: cddbd v1.5.2PL0 Copyright (c) Steve Scherf et al.
# Submitted via: CDex 1.70beta2
#
DISCID=d00c8910
DTITLE=Louis Armstrong - The Best Of Louis Armstrong
DYEAR=1999
DGENRE=Jazz
TTITLE0=What A Wonderful World
TTITLE1=La Vie En Rose
TTITLE2=On The Sunny Side Of The Street
TTITLE3=Blueberry Hill
TTITLE4=C'est Si Bon
TTITLE5=The Dummy Song
TTITLE6=Chloe (Song Of The Swamp)
TTITLE7=I Still Get Jealous
TTITLE8=When You're Smiling
TTITLE9=Kiss Of Fire
TTITLE10=Sittin' In The Sun
TTITLE11=A Kiss To Build A Dream On
TTITLE12=High Society
TTITLE13=WhenIt's Sleepy Time Down South
TTITLE14=It Takes Two To Tango
TTITLE15=La Cucaracha
EXTD=YEAR: 1999
EXTT0=
EXTT1=
EXTT2=
EXTT3=
EXTT4=
EXTT5=
EXTT6=
EXTT7=
EXTT8=
EXTT9=
EXTT10=
EXTT11=
EXTT12=
EXTT13=
EXTT14=
EXTT15=
PLAYORDER=
